<svg xmlns="http://www.w3.org/2000/svg" viewBox="0 0 760 328" width="760" height="328" role="img" aria-labelledby="t d"><title id="t">One unlock attempt, timed stage by stage</title><desc id="d">Mac (Apple M4 Pro), Core ML fp16, median of 3 sessions. Bars grow at one real-time rate: 1 ms of compute = 60 ms on screen.</desc><style>
svg{font-family:-apple-system,BlinkMacSystemFont,"Segoe UI",Helvetica,Arial,sans-serif}
.bg{fill:#fcfcfb} .title{font-size:22px;font-weight:600;fill:#0b0b0b}
.sub{font-size:14px;fill:#52514e} .row{font-size:16px;font-weight:600;fill:#0b0b0b}
.total{font-weight:400;fill:#52514e} .seg{font-size:14px;fill:#ffffff;font-weight:600}
.note,.legend{font-size:14px;fill:#52514e} .s0{fill:#2a78d6}.s1{fill:#eb6834}.s2{fill:#1baf7a}.s3{fill:#eda100}
@keyframes grow{from{transform:scaleX(0)}to{transform:scaleX(1)}}
.a00{transform-origin:24.00px 0;animation:grow 0.15s linear 0.30s both}.a01{transform-origin:72.00px 0;animation:grow 0.05s linear 0.45s both}.a02{transform-origin:73.63px 0;animation:grow 0.13s linear 0.50s both}.a03{transform-origin:116.21px 0;animation:grow 0.05s linear 0.63s both}.a10{transform-origin:24.00px 0;animation:grow 0.17s linear 0.70s both}.a11{transform-origin:78.63px 0;animation:grow 0.05s linear 0.87s both}.a12{transform-origin:80.48px 0;animation:grow 0.15s linear 0.92s both}.a13{transform-origin:129.34px 0;animation:grow 1.80s linear 1.07s both}
@media (prefers-color-scheme:dark){.bg{fill:#1a1a19} .title,.row{fill:#ffffff}
.sub,.total,.note,.legend{fill:#c3c2b7} .s0{fill:#3987e5}.s1{fill:#d95926}.s2{fill:#199e70}.s3{fill:#c98500}}
@media (prefers-reduced-motion:reduce){rect{animation:none!important}}
</style><rect class="bg" x="0" y="0" width="760" height="328" rx="12"/><text x="24" y="36" class="title">One unlock attempt, timed stage by stage</text><text x="24" y="58" class="sub">Mac (Apple M4 Pro), Core ML fp16, median of 3 sessions.</text><text x="24" y="76" class="sub">Bars grow at one real-time rate: 1 ms of compute = 60 ms on screen.</text><rect class="s0" x="24" y="88" width="14" height="14" rx="3"/><text x="44" y="100" class="legend">find face</text><rect class="s1" x="138" y="88" width="14" height="14" rx="3"/><text x="158" y="100" class="legend">align</text><rect class="s2" x="220" y="88" width="14" height="14" rx="3"/><text x="240" y="100" class="legend">embed</text><rect class="s3" x="302" y="88" width="14" height="14" rx="3"/><text x="322" y="100" class="legend">decide</text><text x="24" y="134" class="row">Face ID-style pipeline <tspan class="total">4.75 ms</tspan></text><rect class="s0 a00" x="24.00" y="146" width="46.00" height="34" rx="4"/><rect class="s1 a01" x="72.00" y="146" width="0.60" height="34" rx="4"/><rect class="s2 a02" x="73.63" y="146" width="40.58" height="34" rx="4"/><rect class="s3 a03" x="116.21" y="146" width="0.60" height="34" rx="4"/><text x="24" y="202" class="note">find face 2.44 · align 0.08 · embed 2.16 · decide 0.003 ms</text><text x="24" y="238" class="row">Same, with Laya deciding <tspan class="total">35.5 ms</tspan></text><rect class="s0 a10" x="24.00" y="250" width="52.63" height="34" rx="4"/><rect class="s1 a11" x="78.63" y="250" width="0.60" height="34" rx="4"/><rect class="s2 a12" x="80.48" y="250" width="46.86" height="34" rx="4"/><rect class="s3 a13" x="129.34" y="250" width="587.49" height="34" rx="4"/><text x="139.3" y="273" class="seg">decide 30.0 ms</text><text x="24" y="306" class="note">find face 2.78 · align 0.09 · embed 2.48 · decide 30.0 ms</text></svg>
